<svg width="97" height="22" viewBox="0 0 97 22" fill="none" xmlns="http://www.w3.org/2000/svg">
<path d="M0.925797 0.234375H4.7863V21.292H0.925797V0.234375Z" fill="black"/>
<path d="M10.7951 20.6922C9.576 20.0193 8.6109 19.0983 7.8997 17.9281C7.1873 16.7585 6.832 15.4711 6.832 14.0676C6.832 12.664 7.1873 11.3772 7.8997 10.207C8.6109 9.03736 9.576 8.11582 10.7951 7.44293C12.013 6.77004 13.3347 6.43359 14.7582 6.43359C16.1812 6.43359 17.5022 6.77004 18.7213 7.44293C19.9392 8.11582 20.9044 9.03678 21.6167 10.207C22.3279 11.3766 22.6844 12.664 22.6844 14.0676C22.6844 15.4711 22.3285 16.7579 21.6167 17.9281C20.9044 19.0977 19.9392 20.0193 18.7213 20.6922C17.5022 21.3651 16.1812 21.7015 14.7582 21.7015C13.3347 21.7015 12.0136 21.3651 10.7951 20.6922ZM16.791 17.6217C17.405 17.2806 17.897 16.798 18.2676 16.174C18.6376 15.55 18.8238 14.8483 18.8238 14.0681C18.8238 13.2886 18.6382 12.5868 18.2676 11.9623C17.897 11.3383 17.405 10.8557 16.791 10.5145C16.1771 10.1734 15.4989 10.0025 14.7582 10.0025C14.017 10.0025 13.34 10.1734 12.7254 10.5145C12.1114 10.8557 11.6188 11.3383 11.2482 11.9623C10.877 12.5862 10.6926 13.2886 10.6926 14.0681C10.6926 14.8483 10.877 15.55 11.2482 16.174C11.6183 16.798 12.1108 17.2806 12.7254 17.6217C13.3394 17.9629 14.0164 18.1338 14.7582 18.1338C15.4989 18.1332 16.1765 17.9629 16.791 17.6217Z" fill="black"/>
<path d="M24.7305 0.234375H28.591V12.7813L33.6212 6.84426H38.2124L32.5388 13.5419L38.6219 21.292H33.6795L28.591 14.5943V21.292H24.7305V0.234375Z" fill="black"/>
<path d="M42.2644 20.766C41.182 20.142 40.3047 19.2499 39.6324 18.0898C38.9595 16.9302 38.623 15.5891 38.623 14.0683C38.623 12.6842 38.9448 11.4068 39.5882 10.2372C40.2316 9.0676 41.109 8.14134 42.2208 7.45903C43.3321 6.77671 44.55 6.43555 45.8764 6.43555C46.8121 6.43555 47.6652 6.59169 48.4348 6.90339C49.2049 7.21509 49.7947 7.63461 50.2042 8.16079V6.84447H54.0648V21.2922H50.2042V19.9759C49.5997 20.5415 48.9562 20.9699 48.2739 21.2627C47.591 21.555 46.7137 21.7017 45.6413 21.7017C44.4723 21.7023 43.3468 21.39 42.2644 20.766ZM49.298 16.9644C50.0192 16.1848 50.3804 15.2197 50.3804 14.0689C50.3804 12.9188 50.0192 11.9536 49.298 11.1735C48.5768 10.3939 47.6211 10.0039 46.432 10.0039C45.2424 10.0039 44.2866 10.3945 43.5654 11.1735C42.8442 11.9536 42.4836 12.9188 42.4836 14.0689C42.4836 15.2197 42.8442 16.1848 43.5654 16.9644C44.2866 17.7445 45.2418 18.134 46.432 18.134C47.6211 18.134 48.5768 17.7445 49.298 16.9644Z" fill="black"/>
<path d="M56.873 0.234375H60.7337V21.292H56.873V0.234375Z" fill="black"/>
<path d="M63.7467 4.15283C63.2788 3.68499 63.0449 3.11934 63.0449 2.45647C63.0449 1.77415 63.2788 1.19435 63.7467 0.716494C64.2145 0.239224 64.7802 0 65.4431 0C66.1249 0 66.7053 0.239224 67.183 0.716494C67.66 1.19435 67.9 1.77415 67.9 2.45647C67.9 3.11934 67.661 3.68499 67.183 4.15283C66.7053 4.62068 66.1249 4.8546 65.4431 4.8546C64.7802 4.85519 64.2145 4.62068 63.7467 4.15283ZM63.5416 6.84381H67.402V21.2915H63.5416V6.84381Z" fill="black"/>
<path d="M70.035 20.2948L70.913 16.6682H71.088C72.355 17.6434 73.652 18.1306 74.978 18.1306C75.524 18.1306 75.967 18.0281 76.309 17.8237C76.65 17.6192 76.821 17.3222 76.821 16.9316C76.821 16.5221 76.62 16.1909 76.221 15.9376C75.821 15.6842 75.075 15.3725 73.984 15.0013C72.873 14.6313 72.01 14.0945 71.396 13.3927C70.782 12.6909 70.474 11.8625 70.474 10.9068C70.474 9.56159 70.976 8.47919 71.98 7.66017C72.984 6.84115 74.256 6.43164 75.797 6.43164C76.577 6.43164 77.269 6.5047 77.874 6.65083C78.478 6.79696 79.053 7.03618 79.599 7.36732L79.746 11.0523H79.541C78.839 10.6039 78.215 10.2681 77.669 10.0436C77.123 9.81967 76.509 9.70712 75.827 9.70712C75.339 9.70712 74.939 9.80494 74.628 9.99938C74.316 10.1944 74.16 10.4484 74.16 10.7601C74.16 11.1696 74.355 11.506 74.745 11.7694C75.134 12.0328 75.866 12.3498 76.938 12.7198C78.166 13.1293 79.097 13.6266 79.731 14.2117C80.365 14.7962 80.682 15.703 80.682 16.9316C80.682 17.9456 80.428 18.8135 79.921 19.5348C79.414 20.2565 78.746 20.7975 77.917 21.1581C77.089 21.5187 76.177 21.699 75.183 21.699C73.174 21.699 71.458 21.2311 70.035 20.2948Z" fill="black"/>
<path d="M86.12 20.6763C84.911 19.9939 83.961 19.063 83.269 17.8834C82.576 16.7037 82.23 15.3927 82.23 13.9497C82.23 12.5462 82.557 11.2735 83.21 10.1333C83.864 8.99258 84.771 8.09107 85.931 7.4282C87.09 6.76533 88.402 6.43359 89.864 6.43359C91.345 6.43359 92.628 6.78006 93.71 7.4718C94.791 8.16414 95.61 9.08509 96.166 10.2358C96.722 11.3866 97 12.6245 97 13.9503V15.091H85.915C86.149 16.1834 86.651 17.0119 87.421 17.577C88.192 18.1426 89.21 18.4248 90.478 18.4248C92.408 18.4248 94.094 17.7914 95.537 16.524H95.947L95.8 20.1795C94.923 20.6869 93.997 21.0669 93.022 21.3203C92.047 21.5736 91.111 21.7003 90.214 21.7003C88.694 21.6997 87.329 21.3586 86.12 20.6763ZM93.14 12.4578C93.042 11.5804 92.676 10.8928 92.043 10.3961C91.409 9.8994 90.634 9.65016 89.718 9.65016C88.821 9.65016 88.036 9.88938 87.363 10.3666C86.691 10.8445 86.237 11.5416 86.003 12.4578H93.14Z" fill="black"/>
</svg>
